REM DIRINDEX 1\4,1\2\5,1\2\6,1\2\7,1\3\8,1\3\9,1\3\10,1\3\11
REM DIRNAME folder01,folder02,folder03,folder04,folder05,folder06,folder07,folder08,folder09,folder10,folder11
TITLE ""
FILE "t_j_42.mp3" MP3
  TRACK 01 AUDIO
    TITLE "8:cjc108_2829"
    INDEX 01 00:00:00
  TRACK 02 AUDIO
    TITLE "0:"
    INDEX 01 00:02:49
  TRACK 03 AUDIO
    TITLE "9:cjc108_2830"
    INDEX 01 00:03:64
  TRACK 04 AUDIO
    TITLE "0:"
    INDEX 01 00:05:12
  TRACK 05 AUDIO
    TITLE "10:cjc108_2831"
    INDEX 01 00:05:14
  TRACK 06 AUDIO
    TITLE "0:"
    INDEX 01 00:06:47
  TRACK 07 AUDIO
    TITLE "9:cjc108_2832"
    INDEX 01 00:07:25
  TRACK 08 AUDIO
    TITLE "0:"
    INDEX 01 00:08:40
  TRACK 09 AUDIO
    TITLE "10:cjc108_2833"
    INDEX 01 00:08:52
  TRACK 10 AUDIO
    TITLE "0:"
    INDEX 01 00:09:53
  TRACK 11 AUDIO
    TITLE "9:cjc108_2834"
    INDEX 01 00:10:27
  TRACK 12 AUDIO
    TITLE "0:"
    INDEX 01 00:11:35
  TRACK 13 AUDIO
    TITLE "10:cjc108_2835"
    INDEX 01 00:11:37
  TRACK 14 AUDIO
    TITLE "0:"
    INDEX 01 00:14:19
  TRACK 15 AUDIO
    TITLE "11:cjc108_2836"
    INDEX 01 00:14:72
  TRACK 16 AUDIO
    TITLE "0:"
    INDEX 01 00:21:37
  TRACK 17 AUDIO
    TITLE "9:cjc108_2837"
    INDEX 01 00:23:18
  TRACK 18 AUDIO
    TITLE "0:"
    INDEX 01 00:24:31
  TRACK 19 AUDIO
    TITLE "10:cjc108_2838"
    INDEX 01 00:24:41
  TRACK 20 AUDIO
    TITLE "0:"
    INDEX 01 00:26:40
  TRACK 21 AUDIO
    TITLE "9:cjc108_2839"
    INDEX 01 00:27:20
  TRACK 22 AUDIO
    TITLE "0:"
    INDEX 01 00:28:23
  TRACK 23 AUDIO
    TITLE "10:cjc108_2840"
    INDEX 01 00:28:33
  TRACK 24 AUDIO
    TITLE "0:"
    INDEX 01 00:31:59
  TRACK 25 AUDIO
    TITLE "11:cjc108_2841"
    INDEX 01 00:32:35
  TRACK 26 AUDIO
    TITLE "0:"
    INDEX 01 00:40:58
  TRACK 27 AUDIO
    TITLE "9:cjc108_2842"
    INDEX 01 00:42:37
  TRACK 28 AUDIO
    TITLE "0:"
    INDEX 01 00:43:31
  TRACK 29 AUDIO
    TITLE "10:cjc108_2843"
    INDEX 01 00:43:42
  TRACK 30 AUDIO
    TITLE "0:"
    INDEX 01 00:44:50
  TRACK 31 AUDIO
    TITLE "9:cjc108_2844"
    INDEX 01 00:45:26
  TRACK 32 AUDIO
    TITLE "0:"
    INDEX 01 00:46:43
  TRACK 33 AUDIO
    TITLE "10:cjc108_2845"
    INDEX 01 00:46:51
  TRACK 34 AUDIO
    TITLE "0:"
    INDEX 01 00:49:67
  TRACK 35 AUDIO
    TITLE "9:cjc108_2846"
    INDEX 01 00:50:42
  TRACK 36 AUDIO
    TITLE "0:"
    INDEX 01 00:51:67
  TRACK 37 AUDIO
    TITLE "10:cjc108_2847"
    INDEX 01 00:52:00
  TRACK 38 AUDIO
    TITLE "0:"
    INDEX 01 00:53:04
  TRACK 39 AUDIO
    TITLE "11:cjc108_2848"
    INDEX 01 00:53:49
  TRACK 40 AUDIO
    TITLE "0:"
    INDEX 01 00:57:05
  TRACK 41 AUDIO
    TITLE "9:cjc108_2849"
    INDEX 01 00:58:54
  TRACK 42 AUDIO
    TITLE "0:"
    INDEX 01 01:00:49
  TRACK 43 AUDIO
    TITLE "10:cjc108_2850"
    INDEX 01 01:00:60
  TRACK 44 AUDIO
    TITLE "0:"
    INDEX 01 01:03:27
  TRACK 45 AUDIO
    TITLE "9:cjc108_2851"
    INDEX 01 01:04:03
  TRACK 46 AUDIO
    TITLE "0:"
    INDEX 01 01:04:74
  TRACK 47 AUDIO
    TITLE "10:cjc108_2852"
    INDEX 01 01:05:05
  TRACK 48 AUDIO
    TITLE "0:"
    INDEX 01 01:05:68
  TRACK 49 AUDIO
    TITLE "11:cjc108_2853"
    INDEX 01 01:06:43
  TRACK 50 AUDIO
    TITLE "0:"
    INDEX 01 01:14:21
  TRACK 51 AUDIO
    TITLE "9:cjc108_2854"
    INDEX 01 01:16:01
  TRACK 52 AUDIO
    TITLE "0:"
    INDEX 01 01:17:20
  TRACK 53 AUDIO
    TITLE "10:cjc108_2855"
    INDEX 01 01:17:35
  TRACK 54 AUDIO
    TITLE "0:"
    INDEX 01 01:20:44
  TRACK 55 AUDIO
    TITLE "9:cjc108_2856"
    INDEX 01 01:21:20
  TRACK 56 AUDIO
    TITLE "0:"
    INDEX 01 01:22:13
  TRACK 57 AUDIO
    TITLE "10:cjc108_2857"
    INDEX 01 01:22:17
  TRACK 58 AUDIO
    TITLE "0:"
    INDEX 01 01:23:67
  TRACK 59 AUDIO
    TITLE "9:cjc108_2858"
    INDEX 01 01:24:43
  TRACK 60 AUDIO
    TITLE "0:"
    INDEX 01 01:25:47
  TRACK 61 AUDIO
    TITLE "10:cjc108_2859"
    INDEX 01 01:25:49
  TRACK 62 AUDIO
    TITLE "0:"
    INDEX 01 01:27:04
  TRACK 63 AUDIO
    TITLE "9:cjc108_2860"
    INDEX 01 01:27:53
  TRACK 64 AUDIO
    TITLE "0:"
    INDEX 01 01:28:59
  TRACK 65 AUDIO
    TITLE "10:cjc108_2861"
    INDEX 01 01:28:67
  TRACK 66 AUDIO
    TITLE "0:"
    INDEX 01 01:31:55
  TRACK 67 AUDIO
    TITLE "11:cjc108_2862"
    INDEX 01 01:32:31
  TRACK 68 AUDIO
    TITLE "0:"
    INDEX 01 01:43:07
